<?xml version="1.0" standalone="no"?>
<!DOCTYPE svg PUBLIC "-//W3C//DTD SVG 20010904//EN"
 "http://www.w3.org/TR/2001/REC-SVG-20010904/DTD/svg10.dtd">
<svg version="1.0" xmlns="http://www.w3.org/2000/svg"
 width="1120.000000pt" height="1120.000000pt" viewBox="0 0 1120.000000 1120.000000"
 preserveAspectRatio="xMidYMid meet">
<metadata>
Created by potrace 1.14, written by Peter Selinger 2001-2017
</metadata>
<g transform="translate(0.000000,1120.000000) scale(0.100000,-0.100000)"
fill="#000000" stroke="none">
<path d="M2000 10400 l0 -800 -200 0 -200 0 0 200 0 200 -200 0 -200 0 0 200
0 200 -200 0 -200 0 0 200 0 200 -400 0 -400 0 0 -1200 0 -1200 200 0 200 0 0
-2200 0 -2200 200 0 200 0 0 -200 0 -200 200 0 200 0 0 -200 0 -200 400 0 400
0 0 -800 0 -800 -400 0 -400 0 0 200 0 200 -600 0 -600 0 0 -600 0 -600 200 0
200 0 0 -200 0 -200 200 0 200 0 0 -200 0 -200 1000 0 1000 0 0 200 0 200 200
0 200 0 0 1000 0 1000 400 0 400 0 0 -1000 0 -1000 200 0 200 0 0 -200 0 -200
1400 0 1400 0 0 200 0 200 200 0 200 0 0 400 0 400 -200 0 -200 0 0 200 0 200
-800 0 -800 0 0 800 0 800 200 0 200 0 0 200 0 200 200 0 200 0 0 200 0 200
200 0 200 0 0 200 0 200 200 0 200 0 0 200 0 200 200 0 200 0 0 200 0 200 200
0 200 0 0 200 0 200 200 0 200 0 0 200 0 200 400 0 400 0 0 200 0 200 400 0
400 0 0 200 0 200 200 0 200 0 0 200 0 200 200 0 200 0 0 200 0 200 200 0 200
0 0 800 0 800 -200 0 -200 0 0 200 0 200 -200 0 -200 0 0 -200 0 -200 -200 0
-200 0 0 -200 0 -200 -200 0 -200 0 0 200 0 200 -200 0 -200 0 0 800 0 800
-200 0 -200 0 0 200 0 200 -400 0 -400 0 0 -200 0 -200 -200 0 -200 0 0 -200
0 -200 -200 0 -200 0 0 -400 0 -400 -200 0 -200 0 0 400 0 400 -200 0 -200 0
0 200 0 200 -400 0 -400 0 0 -200 0 -200 -200 0 -200 0 0 -200 0 -200 -600 0
-600 0 0 200 0 200 -200 0 -200 0 0 400 0 400 -800 0 -800 0 0 -800z m2400
-3000 l0 -200 800 0 800 0 0 -200 0 -200 200 0 200 0 0 -200 0 -200 200 0 200
0 0 -200 0 -200 200 0 200 0 0 -600 0 -600 -200 0 -200 0 0 -200 0 -200 -200
0 -200 0 0 -200 0 -200 -200 0 -200 0 0 -200 0 -200 -200 0 -200 0 0 -200 0
-200 -200 0 -200 0 0 -1000 0 -1000 1000 0 1000 0 0 -400 0 -400 -1400 0
-1400 0 0 1200 0 1200 -800 0 -800 0 0 -1200 0 -1200 -1000 0 -1000 0 0 200 0
200 -200 0 -200 0 0 400 0 400 400 0 400 0 0 -200 0 -200 600 0 600 0 0 1200
0 1200 -400 0 -400 0 0 1400 0 1400 200 0 200 0 0 400 0 400 400 0 400 0 0
200 0 200 800 0 800 0 0 -200z"/>
<path d="M4400 6200 l0 -200 200 0 200 0 0 200 0 200 -200 0 -200 0 0 -200z"/>
<path d="M2800 5800 l0 -200 200 0 200 0 0 200 0 200 -200 0 -200 0 0 -200z"/>
<path d="M2400 5000 l0 -200 200 0 200 0 0 -200 0 -200 400 0 400 0 0 -200 0
-200 800 0 800 0 0 200 0 200 200 0 200 0 0 200 0 200 200 0 200 0 0 200 0
200 -200 0 -200 0 0 -200 0 -200 -200 0 -200 0 0 -200 0 -200 -800 0 -800 0 0
200 0 200 -400 0 -400 0 0 200 0 200 -200 0 -200 0 0 -200z"/>
</g>
</svg>
